<svg xmlns="http://www.w3.org/2000/svg" width="960" height="560" viewBox="0 0 960 560" role="img" aria-labelledby="title desc">
  <title id="title">Home-visit service area in Novi Sad</title>
  <desc id="desc">A simplified two-zone service-area illustration. Petrovaradin is confirmed in Zone 1; exact boundaries elsewhere are confirmed with each request.</desc>
  <rect width="960" height="560" rx="28" fill="#edf3ef"/>
  <path d="M-35 430C130 355 210 375 335 308C454 244 525 115 668 71C774 38 875 52 1005 4" fill="none" stroke="#a9c8d0" stroke-width="74" stroke-linecap="round"/>
  <path d="M-35 430C130 355 210 375 335 308C454 244 525 115 668 71C774 38 875 52 1005 4" fill="none" stroke="#dcebee" stroke-width="52" stroke-linecap="round"/>
  <path d="M88 108h524c54 0 98 44 98 98v185c0 54-44 98-98 98H88c-54 0-98-44-98-98V206c0-54 44-98 98-98Z" fill="#e8dfd3" fill-opacity=".72" stroke="#9d623c" stroke-width="4" stroke-dasharray="13 11"/>
  <path d="M170 165h300c42 0 76 34 76 76v112c0 42-34 76-76 76H170c-42 0-76-34-76-76V241c0-42 34-76 76-76Z" fill="#dce9e1" stroke="#527e6b" stroke-width="4" stroke-dasharray="12 10"/>
  <circle cx="318" cy="283" r="66" fill="#275f4b"/>
  <path d="M291 292v-42l27-22 27 22v42h-20v-31h-14v31Z" fill="#fff"/>
  <text x="318" y="379" fill="#20332f" font-family="Arial, sans-serif" font-size="32" font-weight="700" text-anchor="middle">Petrovaradin</text>
  <text x="694" y="166" fill="#58736b" font-family="Arial, sans-serif" font-size="24" transform="rotate(-25 694 166)">Danube</text>
  <g transform="translate(690 340)">
    <rect width="220" height="142" rx="18" fill="#fff" stroke="#cbd8d1" stroke-width="3"/>
    <circle cx="30" cy="34" r="9" fill="#275f4b"/>
    <text x="49" y="41" fill="#20332f" font-family="Arial, sans-serif" font-size="20" font-weight="700">Zone 1 · standard</text>
    <circle cx="30" cy="77" r="9" fill="#9d623c"/>
    <text x="49" y="84" fill="#20332f" font-family="Arial, sans-serif" font-size="20" font-weight="700">Zone 2 · farther</text>
    <text x="24" y="119" fill="#52645d" font-family="Arial, sans-serif" font-size="16">Schematic zones;</text>
    <text x="24" y="138" fill="#52645d" font-family="Arial, sans-serif" font-size="16">route confirmed per request</text>
  </g>
</svg>
